[img]http://www.imagefreeks.com/out.php/i107_TronBluray476x6001.jpg[/img]

[img]http://www.imagefreeks.com/out.php/i79_banner.png[/img]

[img]http://www.imagefreeks.com/out.php/i85_info.png[/img]

[code]
General
Format                           : AVI
Format/Info                      : Audio Video Interleave
Format profile                   : OpenDML
Format settings                  : rec
File size                        : 9.17 GiB
Duration                         : 2h 5mn
Overall bit rate                 : 10.5 Mbps


Video
ID                               : 0
Format                           : MPEG-4 Visual
Format profile                   : Advanced Simple@L5
Format settings, BVOP            : 4
Format settings, QPel            : No
Format settings, GMC             : No warppoints
Format settings, Matrix          : Default (H.263)
Codec ID                         : XVID
Codec ID/Hint                    : XviD
Duration                         : 2h 5mn
Bit rate                         : 4 891 Kbps
Width                            : 1 920 pixels
Height                           : 816 pixels
Display aspect ratio             : 2.35:1
Frame rate                       : 23.976 fps
Color space                      : YUV
Chroma subsampling               : 4:2:0
Bit depth                        : 8 bits
Scan type                        : Progressive
Compression mode                 : Lossy
Bits/(Pixel*Frame)               : 0.130
Stream size                      : 4.27 GiB (47%)
Writing library                  : XviD 1.2.1 (UTC 2008-12-04)

Audio #1
ID                               : 1
Format                           : DTS
Format/Info                      : Digital Theater Systems
Codec ID                         : 2001
Codec ID/Info                    : Digital Theater Systems
Duration                         : 2h 5mn
Bit rate mode                    : Constant
Bit rate                         : 1 510 Kbps
Channel(s)                       : 6 channels
Channel positions                : Front: L C R, Side: L R, LFE
Sampling rate                    : 48.0 KHz
Bit depth                        : 24 bits
Compression mode                 : Lossy
Stream size                      : 1.32 GiB (14%)
Alignment                        : Aligned on interleaves
Interleave, duration             : 21 ms (0.51 video frame)
Interleave, preload duration     : 192 ms
Title                            : Striker

Audio #2
ID                               : 2
Format                           : AC-3
Format/Info                      : Audio Coding 3
Mode extension                   : CM (complete main)
Codec ID                         : 2000
Duration                         : 2h 5mn
Bit rate mode                    : Constant
Bit rate                         : 640 Kbps
Channel(s)                       : 6 channels
Channel positions                : Front: L C R, Side: L R, LFE
Sampling rate                    : 48.0 KHz
Bit depth                        : 16 bits
Compression mode                 : Lossy
Stream size                      : 573 MiB (6%)
Alignment                        : Aligned on interleaves
Interleave, duration             : 64 ms (1.53 video frames)
Interleave, preload duration     : 192 ms
Title                            : Striker

Audio #3
ID                               : 3
Format                           : AC-3
Format/Info                      : Audio Coding 3
Mode extension                   : CM (complete main)
Codec ID                         : 2000
Duration                         : 2h 5mn
Bit rate mode                    : Constant
Bit rate                         : 640 Kbps
Channel(s)                       : 6 channels
Channel positions                : Front: L C R, Side: L R, LFE
Sampling rate                    : 48.0 KHz
Bit depth                        : 16 bits
Compression mode                 : Lossy
Stream size                      : 573 MiB (6%)
Alignment                        : Aligned on interleaves
Interleave, duration             : 64 ms (1.53 video frames)
Interleave, preload duration     : 192 ms
Title                            : Striker

Audio #4
ID                               : 4
Format                           : AC-3
Format/Info                      : Audio Coding 3
Mode extension                   : CM (complete main)
Codec ID                         : 2000
Duration                         : 2h 5mn
Bit rate mode                    : Constant
Bit rate                         : 640 Kbps
Channel(s)                       : 6 channels
Channel positions                : Front: L C R, Side: L R, LFE
Sampling rate                    : 48.0 KHz
Bit depth                        : 16 bits
Compression mode                 : Lossy
Stream size                      : 573 MiB (6%)
Alignment                        : Aligned on interleaves
Interleave, duration             : 64 ms (1.53 video frames)
Interleave, preload duration     : 192 ms
Title                            : Striker

Audio #5
ID                               : 5
Format                           : DTS
Format/Info                      : Digital Theater Systems
Codec ID                         : 2001
Codec ID/Info                    : Digital Theater Systems
Duration                         : 2h 5mn
Bit rate mode                    : Constant
Bit rate                         : 1 510 Kbps
Channel(s)                       : 6 channels
Channel positions                : Front: L C R, Side: L R, LFE
Sampling rate                    : 48.0 KHz
Bit depth                        : 24 bits
Compression mode                 : Lossy
Stream size                      : 1.32 GiB (14%)
Alignment                        : Aligned on interleaves
Interleave, duration             : 21 ms (0.51 video frame)
Interleave, preload duration     : 192 ms
Title                            : Striker

Audio #6
ID                               : 6
Format                           : AC-3
Format/Info                      : Audio Coding 3
Mode extension                   : CM (complete main)
Codec ID                         : 2000
Duration                         : 2h 5mn
Bit rate mode                    : Constant
Bit rate                         : 640 Kbps
Channel(s)                       : 6 channels
Channel positions                : Front: L C R, Side: L R, LFE
Sampling rate                    : 48.0 KHz
Bit depth                        : 16 bits
Compression mode                 : Lossy
Stream size                      : 573 MiB (6%)
Alignment                        : Aligned on interleaves
Interleave, duration             : 64 ms (1.53 video frames)
Interleave, preload duration     : 192 ms
Title                            : Striker

[/code]

[img]http://www.imagefreeks.com/out.php/i86_screens.png[/img]

[img]http://www.imagefreeks.com/out.php/i97_1.jpg[/img]
[img]http://www.imagefreeks.com/out.php/i106_9.jpg[/img]
[img]http://www.imagefreeks.com/out.php/i105_8.jpg[/img]
[img]http://www.imagefreeks.com/out.php/i104_7.jpg[/img]
[img]http://www.imagefreeks.com/out.php/i103_6.jpg[/img]
[img]http://www.imagefreeks.com/out.php/i102_5.jpg[/img]
[img]http://www.imagefreeks.com/out.php/i101_4.jpg[/img]
[img]http://www.imagefreeks.com/out.php/i100_3.jpg[/img]
[img]http://www.imagefreeks.com/out.php/i99_2.jpg[/img]
[img]http://www.imagefreeks.com/out.php/i98_10.jpg[/img]


COME JOIN US AT http://www.warezboyz.com